<?xml version="1.0" encoding="UTF-8"?>
<!DOCTYPE svg PUBLIC "-//W3C//DTD SVG 1.1//EN" "http://www.w3.org/Graphics/SVG/1.1/DTD/svg11.dtd">
<!-- Creator: CorelDRAW 2020 (64-Bit) -->
<svg xmlns="http://www.w3.org/2000/svg" xml:space="preserve" width="48.8268mm" height="32.2512mm" version="1.1" style="shape-rendering:geometricPrecision; text-rendering:geometricPrecision; image-rendering:optimizeQuality; fill-rule:evenodd; clip-rule:evenodd"
viewBox="0 0 11446.07 7560.39"
 xmlns:xlink="http://www.w3.org/1999/xlink"
 xmlns:xodm="http://www.corel.com/coreldraw/odm/2003">
 <defs>
  <style type="text/css">
   <![CDATA[
    .fil1 {fill:#FEFEFE}
    .fil0 {fill:#4B4B4D}
    .fil2 {fill:#4B4B4D;fill-rule:nonzero}
   ]]>
  </style>
 </defs>
 <g id="Capa_x0020_1">
  <metadata id="CorelCorpID_0Corel-Layer"/>
  <g id="_2429464191264">
   <path class="fil0" d="M6055.33 2839.06l-755.85 0c-54.01,0 -98.15,-44.17 -98.15,-98.29l0 -259.95c0,-54.01 44.14,-98.29 98.15,-98.29l755.85 0c54.01,0 98.18,44.28 98.18,98.29l0 259.95c0,54.13 -44.17,98.29 -98.18,98.29z"/>
   <path class="fil0" d="M5078.16 2676.79l1198.25 0c19.93,0 35.91,15.99 35.91,35.8l0 1833.16c0,19.81 -15.99,35.68 -35.91,35.68l-1198.25 0c-19.67,0 -35.68,-15.87 -35.68,-35.68l0 -1833.16c0,-19.81 16.01,-35.8 35.68,-35.8z"/>
   <path class="fil0" d="M5805.9 7560.39c1.29,-61.04 3.14,-121.92 6.66,-179.52 7.97,-128.91 1.85,-264.66 6.42,-394.53 4.59,-130.83 8.6,-268.11 7.15,-401.52l-51.55 1.69 -1.13 -20.65c24.9,-13.57 25.79,7.97 37.11,-17.82 5.93,-13.57 -3.21,-7.15 5.93,-22.5 4.03,-6.66 5.72,-3.94 15.26,-10.67l16.15 -857.12 -301.77 -1.83 40.48 1904.47 219.28 0z"/>
   <path class="fil0" d="M4892.01 7560.39c37.51,-127.31 74.15,-256.29 110.2,-384.01 69.65,-246.92 153.83,-510.69 220,-756.71 55.82,-206.74 127.38,-424.33 184.33,-632.35 10.69,-39.43 31.48,-93.32 36.08,-132.05l-308.03 0.16c-40.32,166.74 -81.3,331.07 -122.25,498.94l-246.42 1001.05c-21.29,83.03 -40.39,168.74 -61.21,251.96 -12.52,50.19 -26.42,101.93 -39.27,153.01l226.57 0z"/>
   <path class="fil0" d="M6728.14 7560.39l-30.76 -125.23c-23.63,9 -29.65,29.89 -57.67,5.23 -60.25,-53.26 12.85,-106.59 39.66,-45.62 -7.31,7.48 -10.92,8.35 -15.59,12.78 -15.89,15.1 -9.54,-0.26 -12.68,21.36 65.78,34.86 6.99,-154.2 -3.14,-196.21 -54.2,-225.3 -115.24,-449.48 -165.76,-673.66 -67.56,-300.65 -149.65,-602.79 -221.86,-903.84l-308.1 0.63 291.81 1010.92c44.8,164.1 96.37,337.33 146.02,500.56 40.32,131.79 75.58,261.52 113.32,393.08l224.74 0z"/>
   <path class="fil0" d="M5269.41 5027.6l853.58 -0.12c7.27,-69.97 1.88,-279.62 2.67,-370.83l-856.6 0.19 0.35 370.76z"/>
   <path class="fil0" d="M5500.05 5403.61c-63.74,36.85 -304.73,156.45 -329.74,180.08l1054.15 0.28c-33.55,-32.58 -320.78,-165.97 -326.57,-184.68l-3.24 -278.49 -394.09 -1.78 -0.52 284.59z"/>
   <path class="fil1" d="M5677.42 2863.16c184.89,0 334.87,149.98 334.87,334.87 0,184.91 -149.98,334.87 -334.87,334.87 -184.91,0 -334.87,-149.96 -334.87,-334.87 0,-184.89 149.96,-334.87 334.87,-334.87z"/>
   <path class="fil0" d="M5677.42 2970.2c125.84,0 227.83,102 227.83,227.83 0,125.86 -102,227.83 -227.83,227.83 -125.86,0 -227.83,-101.97 -227.83,-227.83 0,-125.84 101.97,-227.83 227.83,-227.83z"/>
   <path class="fil1" d="M5901.55 3497.36c157.3,81.27 264.85,245.39 264.85,434.67 0,270.05 -218.93,488.96 -488.98,488.96 -270.03,0 -488.96,-218.9 -488.96,-488.96 0,-189.27 107.55,-353.39 264.85,-434.67 61.49,48.97 139.39,78.25 224.11,78.25 84.74,0 162.62,-29.28 224.13,-78.25z"/>
   <path class="fil0" d="M5677.42 3618.4c173.21,0 313.59,140.37 313.59,313.59 0,173.21 -140.37,313.7 -313.59,313.7 -173.21,0 -313.59,-140.49 -313.59,-313.7 0,-173.21 140.37,-313.59 313.59,-313.59z"/>
   <path class="fil0" d="M5677.42 3663.66c148.22,0 268.3,120.21 268.3,268.32 0,148.25 -120.07,268.32 -268.3,268.32 -148.13,0 -268.32,-120.07 -268.32,-268.32 0,-148.11 120.19,-268.32 268.32,-268.32z"/>
   <polygon class="fil0" points="4932.99,2942.77 5042.46,2956.34 5042.46,3477.7 4933.29,3491.53 "/>
   <polygon class="fil0" points="6421.8,3297.71 6312.33,3311.28 6312.33,3832.63 6421.47,3846.46 "/>
   <path class="fil0" d="M6300.16 4296.13l49.81 0c6.52,0 11.93,5.27 11.93,11.81l0 148.22c0,6.52 -5.42,11.81 -11.93,11.81l-49.81 0c-6.54,0 -11.81,-5.3 -11.81,-11.81l0 -148.22c0,-6.54 5.27,-11.81 11.81,-11.81z"/>
   <path class="fil1" d="M5294.82 2482.67l765.2 0c9.59,0 17.35,7.74 17.35,17.46l0 63.97c0,9.71 -7.76,17.46 -17.35,17.46l-765.2 0c-9.73,0 -17.35,-7.76 -17.35,-17.46l0 -63.97c0,-9.73 7.62,-17.46 17.35,-17.46z"/>
  </g>
  <path class="fil2" d="M1920.97 365.91l0 2642.52 1219.67 0c282.85,0 491.23,-60.97 621.69,-182.92 132.07,-123.63 218.5,-369.28 262.53,-741.95l182.92 0 0 2286.81 -182.92 0c-3.38,-260.84 -37.27,-453.96 -101.62,-575.9 -66.11,-123.7 -155.84,-215.13 -271.04,-276.1 -115.19,-62.73 -284.61,-93.18 -511.56,-93.18l-1219.67 0 0 2946.05c0,340.38 22.15,565.78 64.35,674.22 32.28,82.92 101.41,154.72 206.69,213.44 143.61,80.17 294.74,118.57 453.96,118.57l240.59 0 0 182.92 -2886.55 0 0 -182.92 238.9 0c279.48,0 482.79,-80.03 608.11,-242.28 81.37,-105.28 118.57,-360.78 118.57,-763.96l0 -5182.08c0,-340.52 -21.31,-566.13 -64.35,-674.22 -33.12,-83.27 -101.69,-154.16 -205,-213.44 -142.27,-79.61 -294.74,-118.57 -457.33,-118.57l-238.9 0 0 -182.92 5000.57 0 71.17 1483.89 -172.79 0c-86.36,-316.75 -186.37,-548.83 -299.8,-696.23 -115.19,-147.33 -255.85,-255.78 -421.82,-321.81 -167.73,-66.11 -425.19,-99.93 -775.84,-99.93l-1480.51 0zm9453.93 -365.91l71.17 1583.82 -188.05 0c-37.27,-277.79 -86.36,-477.66 -149.02,-596.23 -103.38,-191.43 -238.9,-333.77 -409.93,-423.51 -171.1,-91.49 -394.74,-137.21 -672.53,-137.21l-948.64 0 0 5964.68c0,414.93 42.97,675.28 133.83,777.53 124.2,139.88 318.44,208.38 579.35,208.38l232.08 0 0 182.92 -2866.16 0 0 -182.92 242.2 0c287.99,0 492.36,-85.73 613.25,-259.22 73.84,-105.91 110.06,-348.96 110.06,-726.68l0 -5964.68 -807.98 0c-315.06,0 -538.7,23.7 -670.85,69.41 -172.79,62.73 -318.44,182.99 -442.07,362.53 -122.02,177.86 -194.8,420.13 -218.57,725l-187.98 0 71.1 -1583.82 5508.75 0z"/>
  <g id="_2429464159680">
   <polygon class="fil1" points="-0,4986.72 11446.07,4986.72 11446.07,6492.9 -0,6492.9 "/>
   <path class="fil2" d="M824.02 5407.34l0 301.49 293.47 0 0 67.65 -293.47 0 0 364.57 -74.55 0 0 -802.5 390.95 0 0 68.78 -316.4 0zm1018.26 747.5c-57.88,0 -110.06,-10.55 -156.34,-31.72 -46.2,-21.03 -85.59,-49.93 -117.87,-86.36 -32.28,-36.5 -57.11,-79.68 -74.55,-128.98 -17.37,-49.51 -25.95,-102.61 -25.95,-159.36 0,-62.73 8.58,-120.05 25.95,-172.02 17.44,-52.11 42.83,-96.7 75.88,-133.76 33.26,-37.2 73.91,-66.11 122.09,-86.71 48.38,-20.82 103.17,-31.15 164.7,-31.15 56.75,0 107.81,10.13 152.89,30.59 45.29,20.25 83.69,48.53 115.41,84.46 31.72,35.87 56.19,78.7 73.14,127.78 17.02,49.3 25.46,102.82 25.46,160.7 0,60.76 -8.23,117.38 -24.83,169.35 -16.67,51.97 -41.14,97.05 -73.42,135.03 -32.28,38.26 -72.01,68.08 -119.41,89.67 -47.19,21.59 -101.62,32.49 -163.16,32.49zm6.12 -762.41c-48.53,0 -91.57,9.14 -128.98,27.71 -37.62,18.5 -69.2,43.53 -95.01,75.11 -25.74,31.51 -45.22,68.36 -58.44,110.76 -13.15,42.27 -20.04,87.35 -20.47,135.1 -0.35,45.71 5.56,89.24 17.58,130.74 12.24,41.63 30.38,78.48 54.85,110.41 24.47,31.93 55.42,57.32 92.69,76.44 37.41,18.92 81.02,28.48 131.09,28.48 50.07,0 93.96,-8.58 131.79,-26.02 37.84,-17.37 69.55,-41.42 95.01,-72.23 25.18,-30.73 44.52,-67.44 57.32,-110.06 12.8,-42.62 19.27,-89.03 19.27,-139.46 0,-47.05 -5.7,-91.57 -17.02,-133.76 -11.46,-42.06 -29.19,-78.91 -53.31,-110.41 -24.05,-31.58 -54.64,-56.61 -92.06,-75.11 -37.27,-18.57 -82,-27.71 -134.32,-27.71zm933.16 14.91l0 733.72 -74.55 0 0 -733.72 -231.59 0 0 -68.78 537.72 0 0 68.78 -231.59 0zm859.04 747.5c-57.88,0 -110.06,-10.55 -156.34,-31.72 -46.2,-21.03 -85.59,-49.93 -117.87,-86.36 -32.28,-36.5 -57.11,-79.68 -74.55,-128.98 -17.37,-49.51 -25.95,-102.61 -25.95,-159.36 0,-62.73 8.58,-120.05 25.95,-172.02 17.44,-52.11 42.83,-96.7 75.88,-133.76 33.26,-37.2 73.91,-66.11 122.09,-86.71 48.38,-20.82 103.17,-31.15 164.7,-31.15 56.75,0 107.81,10.13 152.89,30.59 45.29,20.25 83.69,48.53 115.41,84.46 31.72,35.87 56.19,78.7 73.14,127.78 17.02,49.3 25.46,102.82 25.46,160.7 0,60.76 -8.23,117.38 -24.83,169.35 -16.67,51.97 -41.14,97.05 -73.42,135.03 -32.28,38.26 -72.01,68.08 -119.41,89.67 -47.19,21.59 -101.62,32.49 -163.16,32.49zm6.12 -762.41c-48.53,0 -91.57,9.14 -128.98,27.71 -37.62,18.5 -69.2,43.53 -95.01,75.11 -25.74,31.51 -45.22,68.36 -58.44,110.76 -13.15,42.27 -20.04,87.35 -20.47,135.1 -0.35,45.71 5.56,89.24 17.58,130.74 12.24,41.63 30.38,78.48 54.85,110.41 24.47,31.93 55.42,57.32 92.69,76.44 37.41,18.92 81.02,28.48 131.09,28.48 50.07,0 93.96,-8.58 131.79,-26.02 37.84,-17.37 69.55,-41.42 95.01,-72.23 25.18,-30.73 44.52,-67.44 57.32,-110.06 12.8,-42.62 19.27,-89.03 19.27,-139.46 0,-47.05 -5.7,-91.57 -17.02,-133.76 -11.46,-42.06 -29.19,-78.91 -53.31,-110.41 -24.05,-31.58 -54.64,-56.61 -92.06,-75.11 -37.27,-18.57 -82,-27.71 -134.32,-27.71zm1518.84 14.91l0 733.72 -74.55 0 0 -733.72 -231.59 0 0 -68.78 537.72 0 0 68.78 -231.59 0zm859.04 747.5c-57.88,0 -110.06,-10.55 -156.34,-31.72 -46.2,-21.03 -85.59,-49.93 -117.87,-86.36 -32.28,-36.5 -57.11,-79.68 -74.55,-128.98 -17.37,-49.51 -25.95,-102.61 -25.95,-159.36 0,-62.73 8.58,-120.05 25.95,-172.02 17.44,-52.11 42.83,-96.7 75.88,-133.76 33.26,-37.2 73.91,-66.11 122.09,-86.71 48.38,-20.82 103.17,-31.15 164.7,-31.15 56.75,0 107.81,10.13 152.89,30.59 45.29,20.25 83.69,48.53 115.41,84.46 31.72,35.87 56.19,78.7 73.14,127.78 17.02,49.3 25.46,102.82 25.46,160.7 0,60.76 -8.23,117.38 -24.83,169.35 -16.67,51.97 -41.14,97.05 -73.42,135.03 -32.28,38.26 -72.01,68.08 -119.41,89.67 -47.19,21.59 -101.62,32.49 -163.16,32.49zm6.12 -762.41c-48.53,0 -91.57,9.14 -128.98,27.71 -37.62,18.5 -69.2,43.53 -95.01,75.11 -25.74,31.51 -45.22,68.36 -58.44,110.76 -13.15,42.27 -20.04,87.35 -20.47,135.1 -0.35,45.71 5.56,89.24 17.58,130.74 12.24,41.63 30.38,78.48 54.85,110.41 24.47,31.93 55.42,57.32 92.69,76.44 37.41,18.92 81.02,28.48 131.09,28.48 50.07,0 93.96,-8.58 131.79,-26.02 37.84,-17.37 69.55,-41.42 95.01,-72.23 25.18,-30.73 44.52,-67.44 57.32,-110.06 12.8,-42.62 19.27,-89.03 19.27,-139.46 0,-47.05 -5.7,-91.57 -17.02,-133.76 -11.46,-42.06 -29.19,-78.91 -53.31,-110.41 -24.05,-31.58 -54.64,-56.61 -92.06,-75.11 -37.27,-18.57 -82,-27.71 -134.32,-27.71zm755.45 748.63l0 -802.5 219.21 0c33.26,0 63.22,4.36 89.81,13.36 26.72,8.93 49.51,21.59 68.22,37.84 18.92,16.25 33.26,35.73 43.39,58.44 10.13,22.72 15.05,47.75 15.05,75.11 0,23.14 -3.24,44.73 -9.56,64.98 -6.26,20.04 -15.47,38.4 -27.29,55 -12.03,16.67 -26.58,31.15 -43.95,43.18 -17.37,12.24 -37.06,21.8 -59.07,28.9l0 2.25c26.94,2.46 51.62,9 73.77,19.48 22.01,10.55 41.07,24.12 56.75,40.93 15.68,16.81 27.92,36.5 36.5,59 8.58,22.57 13.01,47.19 13.01,74.12 0,33.83 -6.12,64.98 -18.57,93.11 -12.24,28.06 -29.61,52.32 -51.76,72.79 -22.15,20.25 -48.74,36.08 -79.33,47.19 -30.52,11.25 -64.35,16.81 -101.41,16.81l-224.76 0zm74.55 -733.72l0 284.33 104.15 0c27.15,0 51.76,-3.66 73.77,-10.76 22.15,-7.03 40.86,-17.16 56.54,-30.52 15.68,-13.36 27.71,-29.61 36.08,-48.74 8.44,-18.92 12.66,-40.3 12.66,-64.21 0,-86.78 -54.08,-130.1 -162.24,-130.1l-120.96 0zm0 351.91l0 314.15 138.33 0c59.43,0 105.14,-13.92 137,-41.63 31.93,-27.71 47.96,-67.09 47.96,-118.29 0,-102.82 -70.12,-154.23 -210.14,-154.23l-113.16 0zm1306.18 381.8l-88.47 -237.35 -344.11 0 -86.22 237.35 -82.92 0 305.57 -802.5 75.04 0 303.81 802.5 -82.7 0zm-244.6 -662.05c-2.67,-7.1 -5.34,-15.33 -8.23,-24.68 -2.81,-9.14 -5.13,-19.83 -7.03,-31.93l-2.11 0c-2.32,12.1 -4.78,22.79 -7.67,31.93 -2.88,9.35 -5.56,17.58 -8.23,24.68l-130.1 357.12 294.67 0 -131.3 -357.12zm1110.39 662.05l-120.82 -230.25c-12.03,-22.93 -23.49,-41.84 -34.74,-57.11 -11.11,-15.47 -22.72,-27.71 -34.6,-36.92 -11.81,-8.93 -24.61,-15.68 -38.19,-19.48 -13.78,-4.01 -28.9,-5.91 -45.71,-5.91l-88.26 0 0 349.66 -74.55 0 0 -802.5 231.02 0c30.24,0 59.43,4.36 87.7,13.36 28.13,8.93 53.17,22.15 75.11,39.73 22.01,17.58 39.73,39.52 52.96,65.9 13.15,26.58 19.83,57.32 19.83,92.34 0,28.27 -4.15,54.43 -12.8,78.34 -8.58,23.63 -20.82,44.87 -36.64,63.43 -15.89,18.28 -35.02,33.97 -57.53,46.77 -22.72,13.01 -48.17,22.57 -76.44,28.9l0 2.25c10.9,4.43 20.68,10.34 29.61,17.37 9,7.1 17.58,15.68 26.02,25.81 8.37,9.92 16.6,21.59 24.83,34.6 8.23,13.15 16.81,28.06 25.6,44.87l134.68 248.82 -87.06 0zm-362.32 -733.72l0 316.4 132.99 0c26.94,0 51.41,-3.8 73.77,-11.67 22.36,-7.81 41.42,-19.06 57.32,-33.62 15.89,-14.35 28.06,-31.93 36.85,-52.32 8.79,-20.47 13.22,-43.6 13.22,-69.2 0,-46.63 -14.91,-83.13 -44.94,-109.64 -29.96,-26.58 -73.35,-39.95 -130.1,-39.95l-139.11 0zm806.51 733.72l0 -802.5 391.37 0 0 68.78 -316.82 0 0 293.47 293.47 0 0 67.65 -293.47 0 0 304.94 334.75 0 0 67.65 -409.3 0zm765.65 -117.73c13.43,10.13 28.27,19.13 44.52,27.15 16.1,8.02 32.7,14.7 49.72,20.25 16.81,5.34 33.97,9.35 50.99,12.24 17.23,2.88 33.62,4.22 49.3,4.22 60.62,0 106.05,-11.67 136.22,-35.16 30.24,-23.49 45.29,-57.18 45.29,-101.06 0,-21.24 -3.59,-39.95 -10.69,-55.84 -7.03,-15.82 -17.93,-30.52 -32.84,-44.52 -15.12,-13.71 -33.83,-27.5 -56.54,-41.07 -22.79,-13.57 -49.72,-29.04 -80.66,-46.27 -34.18,-18.71 -63.65,-36.29 -88.05,-52.89 -24.47,-16.6 -44.38,-33.62 -59.85,-51.06 -15.47,-17.37 -26.94,-36.08 -34.18,-56.12 -7.24,-20.25 -10.9,-43.18 -10.9,-68.99 0,-32.49 6.89,-61.54 20.61,-87.35 13.99,-25.81 32.49,-47.75 55.98,-65.76 23.56,-18.14 51.06,-32.07 82.56,-41.84 31.51,-9.71 65.19,-14.49 100.92,-14.49 63.01,0 115.97,8.79 158.38,26.37l0 82.14c-47.4,-27.29 -102.82,-40.86 -166.6,-40.86 -23.91,0 -46.27,2.88 -67.44,8.58 -21.03,5.91 -39.38,14.35 -55.21,25.6 -15.89,11.25 -28.48,25.25 -37.48,41.84 -9.14,16.67 -13.78,35.94 -13.78,57.88 0,21.03 3.09,39.03 9.21,54.08 6.33,15.12 16.03,29.47 29.82,42.83 13.57,13.57 31.3,26.94 53.66,40.09 22.15,13.22 49.3,28.48 81.44,45.71 33.41,17.93 62.87,35.37 87.7,52.32 25.04,17.02 45.85,34.81 62.45,53.17 16.67,18.5 29.04,38.19 37.27,58.79 8.23,20.89 12.24,43.81 12.24,69.2 0,35.16 -6.47,65.9 -19.48,92.69 -13.22,26.72 -31.37,48.88 -54.85,66.46 -23.49,17.44 -51.41,30.8 -83.9,39.73 -32.49,9 -68.01,13.43 -106.83,13.43 -12.59,0 -27.71,-0.98 -45.22,-3.09 -17.58,-2.11 -35.16,-5.13 -53.17,-9 -17.93,-4.01 -34.95,-8.79 -51.2,-14.14 -16.25,-5.49 -29.26,-11.46 -39.38,-17.72l0 -87.56z"/>
  </g>
 </g>
</svg>
